<mxfile host="app.diagrams.net" modified="2023-08-31T05:34:06.743Z" agent="Mozilla/5.0 (Windows NT 10.0; Win64; x64; rv:109.0) Gecko/20100101 Firefox/117.0" version="21.7.1" etag="Gi-Ijnb-jcyDNMzsWemJ" type="github">
  <diagram name="Seite-1" id="i9KQZ9D_89Ocbi1L_LJ9">
    <mxGraphModel>
      <root>
        <mxCell id="0" />
        <mxCell id="1" parent="0" />
      </root>
    </mxGraphModel>
  </diagram>
</mxfile>
